<svg xmlns="http://www.w3.org/2000/svg" xmlns:xlink="http://www.w3.org/1999/xlink" version="1.1" x="0px" y="0px" viewBox="0 0 150 187.5" style="enable-background:new 0 0 150 150;" xml:space="preserve"><style type="text/css">
	.st0{fill:none;}
	.st1{fill:none;stroke:#000000;stroke-width:2;stroke-linecap:round;stroke-linejoin:round;stroke-miterlimit:10;}
</style><g><path d="M131.7250671,79.2056503c-0.4145508-0.3662109-1.0458984-0.3261719-1.4116211,0.0864258   c-1.1383209,1.2872543,1.4395294,2.2372055,4.3939209,5.2216797l-13.2428589-2.3360596   c0.3511353-2.2938232,0.5333252-4.6422119,0.5390015-7.0311279c0.0002441-0.036499,0.005249-0.0725098,0.005249-0.1088867   c0-0.0241699-0.0040894-0.0480957-0.0042114-0.0722656c-0.00354-2.4272461-0.1916504-4.8120117-0.5516968-7.1408691   l13.2556152-2.3363037c-2.9590759,2.9888992-5.5364227,3.9315414-4.3950195,5.22229   c0.36586,0.4128418,0.9972687,0.4529648,1.4116211,0.0864258c7.8862152-6.9934044,6.9609222-6.1270905,7.1012573-6.3161621   c0.170639-0.2324219,0.2267303-0.5354843,0.1858521-0.7668457c-0.1395874-0.7881813-0.1121063-0.5331688-9.2700195-4.1630859   c-0.5151367-0.203125-1.0942383,0.0507813-1.296875,0.5644531c-0.6292648,1.5990028,2.1177521,1.6095848,5.914856,3.4033203   l-13.2598877,2.3371582c-0.9523926-4.791748-2.6347656-9.3221436-4.927124-13.4724121l11.6812134-6.7431641   c-1.7604523,3.8252182-3.857666,5.5881271-2.3436279,6.4106445c0.4855576,0.2631416,1.0928116,0.0833015,1.355957-0.4018555   c4.7807465-8.8294563,4.5883942-8.2732391,4.5490112-8.7329102c-0.0250397-0.303093-0.1633759-0.550972-0.4224243-0.7304688   c-0.3855591-0.2684822,0.2100067-0.15131-9.8365479-0.4262695c-1.2592621-0.1173706-1.4312363,1.9636536-0.0517578,1.9990234   l5.7487793,0.1499023l-11.6799316,6.7421875c-2.5056763-4.1130371-5.6328125-7.8041992-9.2376099-10.9633789l8.6888428-10.3533936   c-0.3396225,4.1175537-1.7863464,6.8363037,0.1395874,6.8363037c1.5516434,0,0.8490219-1.9400253,2.362793-10.0478516   c0.0548248-0.3641872-0.1236649-0.7242432-0.3425293-0.9101563c-0.2233353-0.1897068-0.615303-0.3040257-0.963623-0.1860352   l-8.8168945,2.9511719c-0.5239258,0.175293-0.8061523,0.7416992-0.6308594,1.265625   c0.5461349,1.6292725,2.656723-0.1282978,6.7186279-1.1943359l-8.6865845,10.350708   c-3.7157593-2.9886475-7.8931885-5.4207764-12.4075928-7.1785889l4.6186523-12.6860352   c1.1842041,4.5942822,0.7046814,6.4372559,2.125061,6.4372559c0.6367493,0,1.1060562-0.583168,0.980957-1.1992188   c-2.0139999-9.8394442-1.8028488-9.2862835-2.1288452-9.6132813c-0.1331177-0.1343746-0.2274017-0.1650486-0.3613892-0.2382813   c-0.8585663-0.1691303-0.1669388-0.4606752-8.2407227,5.9458008c-1.0352173,0.8246632,0.2081909,2.3867664,1.2451172,1.5654297   l4.5003662-3.5808105l-4.618042,12.6843262c-4.4475098-1.5155029-9.1902466-2.3800049-14.1196899-2.4838867l-0.0010986-13.5046387   c2.9739761,4.5446434,2.8688126,5.3815918,3.8580933,5.3815918c0.7720642,0,1.2621613-0.8520164,0.8515625-1.5224609   c-5.4719238-8.9026842-4.7863617-7.8645601-4.9662476-8.059082c-0.4064789-0.4633484-1.0818787-0.4632063-1.4880371,0.0009766   c-0.1840668,0.1985397,0.2599411-0.4438143-4.9651489,8.0581055c-0.2885742,0.4711914-0.140625,1.0869141,0.3300781,1.375   c1.4648666,0.8983097,1.9449844-1.792696,4.3796997-5.2348633l0.0010986,13.5053711   c-4.9294434,0.1035156-9.6723022,0.9680176-14.119812,2.4833984l-4.6177979-12.6838379   c3.4613953,2.3979607,4.8320541,4.7683449,5.9056396,3.4206543c0.34375-0.4321289,0.2719727-1.0610352-0.1601563-1.4052734   c-8.0340538-6.3544359-7.3849602-6.1439734-8.2407227-5.9458008c-0.231308,0.118145-0.4319344,0.2430611-0.5592651,0.5107422   c-0.1087379,0.2253351-0.1052437,0.4650583-1.9309692,9.3408203c-0.2631035,1.2956371,1.6968651,1.695219,1.9599609,0.3984375   l1.1460571-5.6364746l4.6184082,12.6853027c-4.5145874,1.7575684-8.6922607,4.1896973-12.4082031,7.1782227l-8.68573-10.3496094   c4.0730515,1.0692692,6.1714706,2.8281879,6.7186279,1.1943359c0.175293-0.5239258-0.1069336-1.090332-0.6308594-1.265625   l-8.8168945-2.9511719c-0.068718-0.0229473-0.1970711-0.0435143-0.2373657-0.0466309   c-0.1389618-0.0112705-0.281189,0.0135746-0.4111328,0.0593262c-0.1903915,0.0674324-0.191864,0.0917988-0.3119507,0.1694336   c-0.0933113,0.1005535-0.1219711,0.1042976-0.2189941,0.2746582c-0.0691833,0.1211395-0.1184349,0.2579346-0.1317139,0.3955078   c-0.0035896,0.0365334-0.0049324,0.1779079,0.0050049,0.2438965c1.530323,8.1965218,0.8234596,10.0478516,2.362793,10.0478516   c0.6140213,0,1.0808372-0.544445,0.9902344-1.1479492l-0.850647-5.6883545l8.6879272,10.352417   c-3.6051025,3.1589355-6.7324219,6.8500977-9.2383423,10.9633789L23.1452312,43.908287   c4.1830711-0.3871574,6.7680874,0.545105,6.7224121-1.175293c-0.0141602-0.5527344-0.4980469-1.0249023-1.0253906-0.9736328   c-10.0341339,0.2746239-9.4586639,0.1635818-9.8362427,0.4260254c-0.2557125,0.1784668-0.3963299,0.4194832-0.4227295,0.7307129   c-0.0201702,0.2354012,0.0529346,0.4549675,0.1110229,0.5620117c4.5019665,7.8864136,4.2333031,8.6938477,5.3178711,8.6938477   c0.7506695,0,1.241457-0.8085632,0.8779297-1.4770508l-2.7454834-5.0546875l11.6795063,6.7421875   c-2.2925434,4.1503906-3.9752827,8.6811523-4.9277973,13.4730225l-13.2575073-2.336792   c3.7984467-1.7943726,6.5450859-1.8018646,5.914856-3.4033203c-0.2021484-0.5136719-0.7822266-0.7670898-1.296875-0.5644531   c-9.243001,3.6532249-8.6220455,3.367363-8.8322144,3.5059814c-0.0984497,0.0648766-0.1692362,0.1225395-0.2651367,0.2587891   c-0.0711699,0.1003838-0.1476192,0.2567596-0.1726685,0.3983154c-0.0248852,0.1408272-0.0072069,0.3110123,0.0253906,0.4317627   c0.043273,0.1610565,0.0895157,0.2384491,0.1604614,0.335083c0.0409546,0.0551758,0.0837402,0.1094971,0.1364136,0.1560059   c7.2106342,6.2541733,6.9262104,6.4111328,7.6269531,6.4111328c0.914156,0,1.3544712-1.1376343,0.6630859-1.7490234   l-4.3085938-3.8106689l13.2533569,2.3360596c-0.7396641,4.7839661-0.732769,9.6442108-0.0117188,14.3537598l-13.2405396,2.3356934   c2.9589252-2.9890518,5.5353298-3.9309311,4.3939209-5.2216797c-0.3657227-0.4125977-0.9975586-0.4526367-1.4116211-0.0864258   l-6.9643555,6.1601563c-0.0526733,0.0466309-0.0953979,0.1008301-0.1364136,0.1561279   c-0.0071411,0.0096436-0.0166626,0.0169678-0.0234375,0.0267334c-0.0646973,0.0939941-0.107605,0.1987305-0.1369629,0.3081055   c-0.0070801,0.026123-0.0117188,0.0515137-0.0166626,0.0782471c-0.0213623,0.1157227-0.0299072,0.2342529-0.0087891,0.3536377   c0.0187988,0.1062012,0.0592651,0.2041016,0.1090698,0.2965088c0.0150757,0.0281982,0.0321045,0.0531006,0.0496826,0.0794678   c0.0429688,0.0644531,0.0927734,0.1225586,0.1495361,0.1755371c0.0202026,0.0187988,0.0375977,0.0390625,0.0592651,0.0561523   c0.0759888,0.0601807,0.1585083,0.1125488,0.2510986,0.1491699c9.0303402,3.5292587,8.662569,3.4765625,9.0170898,3.4765625   c1.100071-0.0013428,1.3901863-1.5277863,0.3666992-1.9311523l-5.3513794-2.1072998l13.2459717-2.3365479   c0.946167,4.7963867,2.621521,9.3327637,4.9099751,13.4881592l-11.6478291,6.7259521   c1.7582264-3.8207779,3.8568134-5.5869064,2.3427734-6.4094238c-0.484375-0.2626953-1.0922852-0.0839844-1.355957,0.4018555   l-4.4375,8.1704102c-0.0327091,0.0602493-0.0784664,0.1906738-0.0877075,0.2269287   c-0.0347519,0.1343842-0.0350266,0.2783585-0.0119019,0.4158936c0.0351372,0.2081833,0.1061535,0.3756332,0.2730103,0.5419922   c0.0120716,0.0119858,0.1679688,0.134964,0.2040405,0.1558838c0.0148544,0.0085449,0.1971512,0.088089,0.2355347,0.0986328   c0.0170689,0.004715,0.2237358,0.0368271,0.2400513,0.0372314c12.0577335,0.3142166,8.6508465,0.2249756,9.3212891,0.2426758   c1.305481,0,1.331749-1.9660187,0.0253906-1.9995117l-5.7496948-0.1499023l11.6464863-6.7250977   c2.50354,4.1210938,5.6303101,7.8199463,9.2363892,10.9855957l-8.65271,10.3137207   c0.3453064-4.1867294,1.7119141-6.5706787,0.0097656-6.824707c-0.546875-0.0839844-1.0556641,0.2944336-1.1367188,0.8408203   c-1.3402786,9.10466-1.4082603,9.1512299-1.3804932,9.4394531c0.0299034,0.3108215,0.2509003,0.6995163,0.6549683,0.8449707   c0.2118111,0.0762711,0.442234,0.0792236,0.656189,0.0075684l8.8168945-2.9516602   c0.5239258-0.175293,0.8061523-0.7421875,0.6308594-1.265625c-0.5456772-1.629425-2.6582985,0.1286392-6.7200317,1.1953125   l8.6501465-10.3105469c3.7185669,2.9963379,7.9009399,5.4344482,12.4211426,7.1967773l-4.5941772,12.6247635   c-1.1041565-4.0402145-0.6395721-6.7641144-2.3249512-6.4157791c-0.5410156,0.1098633-0.890625,0.6381836-0.7807617,1.1791992   c1.9913826,9.7287521,1.8176422,9.0713425,1.9192505,9.3065262c0.0457687,0.1060486,0.0894928,0.1861267,0.2091675,0.3062744   c0.0879555,0.089035,0.2260132,0.1877289,0.3571167,0.236084c0.1010132,0.0372467,0.2085915,0.0637207,0.3469849,0.0637207   c0.2008743,0,0.2966232-0.0501251,0.3968506-0.09375c0.100029-0.0439911,0.1981812-0.102005,0.225708-0.1240234   l7.2758789-5.7890625c0.4321289-0.3442383,0.5039063-0.9731445,0.1601563-1.4052734   c-1.0699806-1.3412704-2.4263115,1.0100708-5.9059448,3.4208984l4.59375-12.6235428   c4.4539185,1.5198975,9.2042236,2.3869629,14.1417236,2.4907227l-0.0010986,13.4365311   c-2.4291763-3.4334869-2.9134216-6.13591-4.3796997-5.2348633c-0.4707031,0.2880859-0.6186523,0.9038086-0.3300781,1.375   l4.8569336,7.9287109c0.0361938,0.059082,0.0818481,0.1098633,0.1283569,0.1591797   c0.0090332,0.0096436,0.0150757,0.0212402,0.0244141,0.0303955c0.0808716,0.0794678,0.1760254,0.1395264,0.2779541,0.1873779   c0.0250854,0.0118408,0.0499268,0.0209961,0.0761108,0.0307617c0.1099854,0.0410156,0.2247925,0.0698242,0.3457031,0.0698242   c0.1211548,0,0.236145-0.0289307,0.3462524-0.0699463c0.0258179-0.0096436,0.0502319-0.0186768,0.0750122-0.0302734   c0.1022949-0.0478516,0.1976929-0.1081543,0.2788086-0.1879883c0.0090332-0.0089111,0.0148315-0.0198975,0.0234985-0.0291748   c0.046814-0.0495605,0.0925903-0.1005859,0.1289673-0.1601563l4.8574219-7.9287109   c0.6911774-1.1285706-1.0140076-2.1733246-1.7050781-1.0449219l-3.0045776,4.9040527l0.0010986-13.4357986   c4.9375-0.1040039,9.6877441-0.9711914,14.1416016-2.491333l4.5939941,12.6241531   c-3.4613876-2.3979797-4.8323593-4.7685928-5.9059448-3.4208984c-0.34375,0.4321289-0.2719727,1.0610352,0.1601563,1.4052734   l7.2758789,5.7890625c0.0085449,0.0068359,0.0192871,0.0089111,0.0279541,0.0153809   c0.0610352,0.0454102,0.1283569,0.078125,0.1977539,0.1086426c0.0283203,0.0123291,0.0537109,0.0306396,0.0829468,0.0402832   c0.100647,0.0335693,0.2059326,0.0534668,0.3139038,0.0534668c0.1137695,0,0.2290039-0.0195313,0.3417969-0.0605469   c0.0020142-0.0007324,0.0032349-0.0024414,0.005188-0.0031738c0.1112061-0.0410156,0.2075195-0.1057129,0.2952881-0.1804199   c0.0215454-0.0183105,0.0420532-0.0356445,0.0618286-0.0556641c0.0794067-0.0797119,0.1483154-0.1687012,0.1971436-0.2709961   c0.0054321-0.0114746,0.007019-0.0236816,0.0120239-0.0352783c0.0271606-0.0628662,0.0527954-0.126709,0.0667114-0.1951904   l1.8525391-9.1113358c0.2630234-1.2952499-1.6960602-1.6980057-1.9599609-0.3984375l-1.145752,5.6350174L92.02005,118.8398056   c4.5200195-1.7625732,8.7020874-4.2008057,12.4205322-7.1972656l8.651001,10.3116455   c-4.0584335-1.0655823-6.1716919-2.826622-6.7200317-1.1953125c-0.175293,0.5234375,0.1069336,1.090332,0.6308594,1.265625   l8.8168945,2.9516602c0.1035156,0.034668,0.2109375,0.0517578,0.3173828,0.0517578c0.0001221,0,0.0001221,0,0.0002441,0   c0.000061,0,0.0001831,0,0.0002441,0c0.1143799,0,0.2288208-0.0198975,0.3383179-0.0593262   c0.1091919-0.0393066,0.2122192-0.0976563,0.303772-0.1745605c0.0925903-0.0776367,0.1620483-0.173584,0.2200317-0.2756348   c0.013855-0.0244141,0.0269775-0.0473633,0.0386353-0.0726318c0.0473633-0.1021729,0.081665-0.2092285,0.0925293-0.3221436   c0.0012817-0.0133057-0.0016479-0.0262451-0.0008545-0.0395508c0.0037842-0.067627,0.0061646-0.1357422-0.0041504-0.2041016   l-1.3754883-9.1958008c-0.081543-0.5463867-0.5932617-0.9257813-1.1367188-0.8408203   c-0.5463867,0.081543-0.9228516,0.590332-0.8408203,1.1367188l0.8505859,5.6879883l-8.6536255-10.3146973   c3.6057739-3.1657715,6.7322998-6.864502,9.2355957-10.9855957l11.6481934,6.7260742   c-4.183075,0.3871002-6.7690048-0.545105-6.7233276,1.175293c0.0141602,0.543457,0.4589844,0.9741211,0.9990234,0.9741211   c0.0087891,0,0.0175781,0,0.0263672-0.0004883l9.2949219-0.2421875c0.0396729-0.0009766,0.0769043-0.0123291,0.1156006-0.0179443   c0.041748-0.0059814,0.0838013-0.0080566,0.1244507-0.0192871c0.0457764-0.0125732,0.0874634-0.0341797,0.1306763-0.0531006   c0.0351563-0.0151367,0.0715332-0.0263672,0.1048584-0.0455322c0.0431519-0.0250244,0.0803223-0.0584717,0.1193237-0.0897217   c0.0280762-0.0224609,0.0588989-0.0405273,0.0847168-0.0661621c0.0615845-0.0614014,0.1160889-0.1306152,0.1607056-0.2077637   c0.0604248-0.1047363,0.0929565-0.2186279,0.1124268-0.3344727c0.0046387-0.0273438,0.0089722-0.0532227,0.0112915-0.0808105   c0.0095825-0.1123047,0.005188-0.2250977-0.0233154-0.3349609c-0.0031738-0.012207-0.0098877-0.0227051-0.0134888-0.0349121   c-0.0195923-0.0654297-0.0409546-0.1306152-0.0742188-0.1918945l-4.4375-8.1704102   c-0.6299515-1.1628952-2.3893661-0.2084198-1.7578125,0.9541016l2.7446289,5.0534668l-11.6495361-6.7270508   c2.288147-4.1552734,3.9632568-8.6914063,4.9093018-13.4875488l13.2483521,2.3370361   c-3.7983551,1.7945709-6.5460663,1.8027191-5.9158325,3.4041748c0.2027283,0.513855,0.7832642,0.7669754,1.296875,0.5644531   c9.3267365-3.6939087,8.8437653-3.3856201,9.1114502-3.7880859c0.1651154-0.2479706,0.1989441-0.4622879,0.1498413-0.7287598   C138.8731079,85.2323303,138.4155579,85.2876511,131.7250671,79.2056503z M92.4687195,99.142662   c-1.3669205-4.0386963,2.4036713-8.1837845,6.7841797-6.8144531c2.4945374,0.5774384,3.3911209,3.3792572,3.4633789,3.4794922   c0.3637695,1.1337891,0.3447266,2.3276367-0.0556641,3.4516602c-0.0004883,0.0004883-0.0004883,0.0009766-0.0004883,0.0014648   C100.9783936,104.0043945,94.0836639,104.0641251,92.4687195,99.142662z M94.2104187,104.0347519   c-4.5917358,9.7336426-11.1508789,15.4658203-18.2109375,15.9633789v-17.8110352   c5.1502075-0.0614014,10.1511841-0.5930176,14.8995361-1.5871582   C91.5424576,101.9852905,92.6953964,103.2588501,94.2104187,104.0347519z M119.9462585,74.0000839h-17.7900391   c-0.0861816-7.0336914-1.0762939-13.9274902-2.8891602-20.1303711   C111.584198,58.309166,119.3352966,65.8506699,119.9462585,74.0000839z M98.7026062,90.14608   c-5.2017136-0.8200684-9.2412262,3.8725815-8.4057617,8.5566406c-4.5541992,0.9388428-9.3584595,1.4257813-14.2973633,1.486084   V76.0000839h24.1522827C100.0940857,80.8557968,99.618927,85.6084824,98.7026062,90.14608z M53.0467834,96.9784775   c-1.4570923-4.6011963-2.4389648-9.5404053-2.9008179-14.7191162c3.0723381-0.5437775,5.5559349-3.0100174,5.993103-6.2592773   h17.8604126v24.1943359C66.6265564,100.1023788,59.4186707,98.9992294,53.0467834,96.9784775z M50.1488953,67.7320175   c0.4802246-5.1962891,1.4631348-10.1066895,2.9051514-14.6392822c4.5725708-1.4534912,9.494873-2.4373779,14.6690674-2.9071045   c0.5259781,2.9455032,2.9303207,5.5290718,6.2763672,5.980835v17.8336182H56.1393127   C55.7082558,70.7753677,53.2446098,68.281601,50.1488953,67.7320175z M80.3886414,49.0767441   c-0.10672,3.521595-3.7166138,6.1023636-7.1982422,4.8652344c-2.8680267-1.0233879-4.2579346-4.1325378-3.269043-6.9018555   C71.9654388,41.2368813,80.6435318,42.9240875,80.3886414,49.0767441z M49.0331726,69.6202011   c6.8598061,0.2456512,6.8702087,10.505127,0,10.75c-3.1707764,0.125824-5.6069336-2.4051056-5.6069336-5.3701172   C43.426239,71.9789047,45.9295807,69.4940414,49.0331726,69.6202011z M75.9994812,74.0000839V56.1724472   c0.8088989-0.111084,1.5861816-0.3444824,2.2999268-0.7015381c3.4995956-1.7501183,3.9100723-5.1580009,3.9759521-5.2852783   c5.159668,0.4692383,10.0808105,1.4506836,14.6654053,2.8999023c2.0169067,6.3502197,3.1196289,13.53479,3.2149048,20.9145508   H75.9994812z M82.3503113,48.1914902c-0.3067017-3.4916306-2.9205017-6.1730728-6.3508301-6.6499023V30.0885849   c8.1589966,0.5894775,15.7081909,8.3339844,20.1467285,20.65271C91.797699,49.4746933,87.1678772,48.6231308,82.3503113,48.1914902   z M73.9994812,41.533165c-4.6962814,0.6425705-5.8636398,4.7473755-5.9637451,4.8392334   c-0.0687332,0.2522888-0.3021851,0.8254738-0.3916626,1.819458c-4.8304443,0.4324951-9.4624634,1.2857666-13.7999878,2.5552979   c4.4377441-12.3225098,11.9901123-20.069458,20.1553955-20.6585693V41.533165z M48.1570129,67.6354599   c-3.4344482,0.3052979-6.1940918,2.97229-6.6551514,6.364624H30.0526409   c0.6101074-8.1500244,8.350832-15.6850586,20.6553974-20.1171875   C49.4504089,58.1801376,48.5987244,62.7956161,48.1570129,67.6354599z M30.0481853,76.0000839h11.4538593   c0.4613647,3.3867188,3.2193604,6.0493164,6.6520996,6.3552246c0.4259033,4.8291016,1.2764282,9.4698486,2.5473633,13.8276367   C38.3650208,91.7295761,30.6169109,84.1647568,30.0481853,76.0000839z M73.9994812,102.1944199v17.7923584   c-8.1636963-0.5899658-15.7216797-8.3453369-20.1688232-20.6824951   C60.0438538,101.1177597,66.9513245,102.1084824,73.9994812,102.1944199z M104.1996765,94.1514511   c-0.7829361-1.5851974-2.0967178-2.7696609-3.5905762-3.4400635c0.9638672-4.7115479,1.4797363-9.6407471,1.5402222-14.7113037   h17.8126221C119.4844055,83.0108261,113.8226013,89.5486679,104.1996765,94.1514511z M118.9671326,65.442955   c-3.7766113-5.8034668-10.9105225-10.7774658-20.4414673-13.949707   c-3.1663208-9.5262451-8.1367188-16.6555176-13.9387207-20.4283447c1.975769,0.430542,3.906311,0.9837646,5.7765503,1.6651611   c0.0064087,0.0024414,0.010376,0.0078125,0.0168457,0.0102539c0.0094604,0.003418,0.019104,0.0019531,0.0285645,0.005127   C104.7333069,37.9817734,115.6669006,50.3028183,118.9671326,65.442955z M65.4059143,31.0657578   c-5.8059082,3.7746582-10.7776489,10.9072266-13.9418335,20.4366455   c-9.5281372,3.1646729-16.6593628,8.1348877-20.434206,13.9385986   C34.7069092,48.5760307,47.9776993,34.8661995,65.4059143,31.0657578z M31.0281658,84.6209335   c3.7733784,5.7995605,10.9022236,10.7711182,20.4265766,13.942627c3.1708374,9.5280762,8.1424561,16.6601563,13.9436035,20.4378662   c-1.8814087-0.4105225-3.7197266-0.9361572-5.5058594-1.574585c-0.2020416-0.1612167-0.3233986-0.2108459-0.5966797-0.2158203   c-4.7994995-1.7927246-9.2129517-4.3808594-13.0797729-7.6057129c-0.0413208-0.052002-0.0709229-0.1107178-0.1237793-0.1550293   c-0.0450439-0.0378418-0.0994263-0.0524902-0.1486816-0.0810547   C38.5589676,103.1104584,33.1722946,94.4628906,31.0281658,84.6209335z M90.6999817,117.2113876   c-0.2728577,0.0059509-0.3883972,0.0531769-0.5907593,0.2137451c-1.7471313,0.6247559-3.5448608,1.1400146-5.3834229,1.546875   c4.411377-2.8947754,8.3308716-7.7652588,11.3773193-14.2911377c5.1885452,1.0475693,9.7233582-3.4674225,8.7189941-8.6241455   c6.4398193-3.0424805,11.2503052-6.9394531,14.1181641-11.3144531   C115.6834412,99.4936066,105.0438614,111.8542175,90.6999817,117.2113876z"/></g></svg>